<svg xmlns="http://www.w3.org/2000/svg" width="470" height="256.965" viewBox="0 0 470 256.965"><g transform="translate(-32 -3.035)"><path d="M219.111,3.035,178.694,145.893l253.363,71.615L472.473,74.65Z" fill="#3f3d56"/><path d="M223.487,11.108a2.1,2.1,0,1,0-2.1-2.1A2.1,2.1,0,0,0,223.487,11.108Z" fill="#3d52d5"/><path d="M229.949,12.934a2.1,2.1,0,1,0-2.1-2.1A2.1,2.1,0,0,0,229.949,12.934Z" fill="#3d52d5"/><path d="M236.41,14.76a2.1,2.1,0,1,0-2.1-2.1A2.1,2.1,0,0,0,236.41,14.76Z" fill="#3d52d5"/><path d="M353.573,93.684a24.521,24.521,0,0,0-10.238.242,24.452,24.452,0,0,0,.723-10.341,24.33,24.33,0,0,0-9.151,5.9,24.325,24.325,0,0,0-4.7-9.819,24.447,24.447,0,0,0-4.8,9.188,24.518,24.518,0,0,0-8.6-5.565s-1.528,7.768,2.151,14.143c3.275,5.674,9.566,8.329,10.911,8.844l.031.038.017-.019c.137.052.213.078.213.078s.029-.149.069-.415l.075-.094c.005.042.01.081.015.119-.1.248-.159.39-.159.39s.079.018.222.045l0,.025.046-.016c1.416.265,8.167,1.3,13.929-1.823C350.8,101.1,353.573,93.684,353.573,93.684Z" fill="#3d52d5"/><path d="M341.016,73.84a5.453,5.453,0,1,0-5.455-5.453A5.454,5.454,0,0,0,341.016,73.84Z" fill="#3d52d5"/><path d="M409.52,139.19,245.563,92.846l-1.009,3.565,163.957,46.344Z" fill="#3d52d5"/><path d="M284.152,122.935l-28.268-7.991L247.89,143.2l28.268,7.99Z" fill="#3d52d5"/><path d="M336.651,137.774l-28.269-7.991-7.994,28.256,28.269,7.99Z" fill="#3d52d5"/><path d="M389.149,152.613l-28.268-7.991-7.994,28.256,28.268,7.99Z" fill="#3d52d5"/><path d="M270.925,155.814l-21-5.936-.686,2.422,21,5.936Z" fill="#3d52d5"/><path d="M323.423,170.653l-21-5.935-.685,2.421,21,5.936Z" fill="#3d52d5"/><path d="M375.922,185.492l-21-5.935-.685,2.421,21,5.936Z" fill="#3d52d5"/><path d="M172.443,219.958c77.565,0,140.444-2.324,140.444-5.19s-62.879-5.19-140.444-5.19S32,211.9,32,214.768,94.879,219.958,172.443,219.958Z" fill="#d0cde1"/><path d="M392.711,260C453.07,260,502,257.676,502,254.81s-48.93-5.19-109.289-5.19-109.288,2.323-109.288,5.19S332.353,260,392.711,260Z" fill="#d0cde1"/><path d="M339.109,214.525h31.53V227.7H352.3v13.18h18.346v13.179H339.109Zm37.837,0h31.53v11.46H390.131v2.292h18.345v26.36H376.947V242.6h18.344V240.31H376.945V214.525Zm37.837,0h31.53v11.46H427.968v2.292h18.345v26.36h-31.53V242.6h18.344V240.31H414.784V214.525Z" fill="#3f3d56"/><path d="M92.771,173h13.007v12.845h11.9V173h13.008v38.9H117.678V198.872h-11.9V211.9H92.772V173Zm55.018,12.9H136.34V173h35.914v12.9H160.8v26H147.791v-26ZM177.954,173h13.562l8.343,13.668L208.194,173h13.568v38.9H208.808v-19.28l-8.949,13.83h-.224l-8.955-13.83V211.9H177.954Zm50.281,0h13.011v26.041h18.291V211.9h-31.3V173Z" fill="#3f3d56"/></g></svg>