<svg width="1024" height="1024" viewBox="0 0 1024 1024" fill="none" xmlns="http://www.w3.org/2000/svg">
<rect width="1024" height="1024" rx="150" fill="url(#paint0_linear)"/>
<g style="mix-blend-mode:luminosity">
<rect width="1005" height="1005" rx="150" fill="url(#paint1_linear)"/>
</g>
<path d="M453 14.9999H576L952.5 960H808.5L705 697.5H316.5L214.5 960H72L453 14.9999ZM354 588H664.5L601.5 424.5C584.5 381.5 569 340 555 300C541 260 527 219 513 177H510C496 219 481.5 259.5 466.5 298.5C451.5 337.5 435.5 379.5 418.5 424.5L354 588Z" fill="white"/>
<defs>
<linearGradient id="paint0_linear" x1="512" y1="0" x2="512" y2="1024" gradientUnits="userSpaceOnUse">
<stop stop-color="#090C9B"/>
<stop offset="1"/>
</linearGradient>
<linearGradient id="paint1_linear" x1="502.5" y1="0" x2="502.5" y2="1005" gradientUnits="userSpaceOnUse">
<stop stop-color="#191EF2"/>
<stop offset="1" stop-color="#090C9B"/>
</linearGradient>
</defs>
</svg>
