<svg xmlns="http://www.w3.org/2000/svg" width="217" height="217" viewBox="0 0 217 217"><g transform="translate(0 -11)"><path d="M217,119.5A108.5,108.5,0,1,1,108.5,11,108.5,108.5,0,0,1,217,119.5Z" fill="#1e4bbf"/><path d="M62.84,127.576H85.88L81.7,115.48q-2.016-5.616-3.744-11.232-1.728-5.76-3.312-11.52H74.36Q72.776,98.2,70.9,103.96q-1.872,5.616-3.888,11.52Zm1.728-55.3H85.016L118.568,163H97.688l-7.056-20.88H58.376L51.32,163H30.728Zm95.944,77.04a47.008,47.008,0,0,0,11.233-1.152A28.436,28.436,0,0,0,179.664,145l4.032,14.4A38.49,38.49,0,0,1,173.9,163a64.444,64.444,0,0,1-15.408,1.584,54.4,54.4,0,0,1-18.864-3.168,44.471,44.471,0,0,1-14.976-9.36,43.586,43.586,0,0,1-9.648-14.832,53.5,53.5,0,0,1-3.456-19.728,53.54,53.54,0,0,1,3.312-19.3,43.123,43.123,0,0,1,9.5-14.688,41.638,41.638,0,0,1,14.976-9.5A55.145,55.145,0,0,1,158.928,70.7a55.033,55.033,0,0,1,15.121,1.728,49.986,49.986,0,0,1,9.792,3.744l-4.464,14.544a40.981,40.981,0,0,0-8.353-3.312,32.766,32.766,0,0,0-10.08-1.44,34.843,34.843,0,0,0-11.088,1.728,22.914,22.914,0,0,0-9.072,5.616,26.376,26.376,0,0,0-6.192,9.792,42.128,42.128,0,0,0-2.16,14.4,42.412,42.412,0,0,0,2.16,14.256,27.524,27.524,0,0,0,5.9,9.792,26.349,26.349,0,0,0,8.928,5.9A32.4,32.4,0,0,0,160.512,149.32Z" fill="#fff"/></g></svg>